<svg xmlns="http://www.w3.org/2000/svg" width="760" height="980" viewBox="0 0 760 980">
<defs><linearGradient id="g" x1="0" y1="0" x2="1" y2="1"><stop stop-color="#132a52"/><stop offset="1" stop-color="#050b18"/></linearGradient><radialGradient id="r" cx="50%" cy="30%" r="60%"><stop stop-color="#d7b46a" stop-opacity=".28"/><stop offset="1" stop-color="#d7b46a" stop-opacity="0"/></radialGradient></defs>
<rect width="760" height="980" rx="34" fill="url(#g)"/><rect x="28" y="28" width="704" height="924" rx="28" fill="none" stroke="#d7b46a" stroke-opacity=".28"/><circle cx="380" cy="260" r="240" fill="url(#r)"/><path d="M250 860c35-185 225-185 260 0" fill="#0a1630"/><circle cx="380" cy="365" r="96" fill="#e9d0a4"/><path d="M270 380c35-130 185-140 225-12 28-115-26-210-112-210-82 0-150 77-113 222z" fill="#10172a"/><path d="M230 868c42-230 260-230 300 0" fill="#14264b"/><path d="M286 655c58 42 132 43 190 0" stroke="#d7b46a" stroke-width="8" fill="none" stroke-linecap="round"/><text x="380" y="875" fill="#f4df9a" text-anchor="middle" font-family="serif" font-size="48" letter-spacing="8">Mrs.LUXIA</text>
</svg>
