<svg xmlns="http://www.w3.org/2000/svg" width="720" height="900" viewBox="0 0 720 900"><defs><linearGradient id="b" x1="0" y1="0" x2="1" y2="1"><stop offset="0" stop-color="#13284d"/><stop offset="1" stop-color="#030816"/></linearGradient><linearGradient id="g" x1="0" y1="0" x2="1" y2="1"><stop offset="0" stop-color="#f7e6a6"/><stop offset=".45" stop-color="#c99a45"/><stop offset="1" stop-color="#fff4bf"/></linearGradient><filter id="s"><feDropShadow dx="0" dy="28" stdDeviation="30" flood-color="#000" flood-opacity=".45"/></filter></defs><rect width="720" height="900" rx="34" fill="url(#b)"/><path d="M74 90h572v720H74z" fill="none" stroke="#d7b46a" stroke-opacity=".38"/><path d="M108 124h504v652H108z" fill="none" stroke="#fff" stroke-opacity=".08"/><circle cx="360" cy="306" r="176" fill="none" stroke="url(#g)" stroke-width="2" opacity=".65"/><circle cx="360" cy="306" r="118" fill="none" stroke="#d7b46a" stroke-opacity=".22"/><g filter="url(#s)"><path d="M275 684c14-90 42-154 85-154s71 64 85 154" fill="#08152c" stroke="#d7b46a" stroke-opacity=".45"/><path d="M260 488c35-40 164-40 200 0 23 26 16 76-18 104-40 33-124 33-164 0-34-28-41-78-18-104z" fill="#f5dfbc" opacity=".88"/><path d="M232 500c43-114 213-114 256 0-65-32-191-32-256 0z" fill="#101a2d"/><path d="M245 566c47 30 183 30 230 0-16 70-47 116-115 116s-99-46-115-116z" fill="#172542"/><path d="M295 630c38 18 92 18 130 0" fill="none" stroke="#d7b46a" stroke-width="4" stroke-linecap="round"/></g><text x="360" y="170" text-anchor="middle" fill="#f4df9a" font-family="Georgia,serif" font-size="74" letter-spacing="8">Mrs.LUXIA</text><text x="360" y="220" text-anchor="middle" fill="#fff8ea" font-family="serif" font-size="20" letter-spacing="6" opacity=".75">LUXURY RELAXATION SALON</text><path d="M144 792h432" stroke="#d7b46a" stroke-opacity=".52"/><text x="360" y="836" text-anchor="middle" fill="#fff8ea" font-family="serif" font-size="24" letter-spacing="7">OSAKA NIPPONBASHI</text></svg>
